<svg width="153" height="36" viewBox="0 0 153 36" fill="none" xmlns="http://www.w3.org/2000/svg">
<g id="Group 47521">
<g id="SINCO">
<path d="M53.0511 25.9238C52.3649 25.9238 51.6425 25.8799 50.884 25.7922C50.1256 25.7044 49.5116 25.5873 49.042 25.441C48.2835 25.1923 47.9043 24.7753 47.9043 24.19C47.9043 23.7657 48.0578 23.4292 48.3648 23.1805C48.6899 22.9171 49.1955 22.7854 49.8818 22.7854C50.3513 22.7854 50.9202 22.8366 51.5884 22.9391C52.2565 23.0415 52.8435 23.0927 53.3491 23.0927C54.4688 23.0927 55.2724 22.9756 55.76 22.7415C56.2476 22.5074 56.4914 22.0319 56.4914 21.315C56.4914 20.8907 56.3018 20.5322 55.9225 20.2396C55.5614 19.947 54.83 19.669 53.7284 19.4056C51.7238 18.9228 50.27 18.3229 49.3671 17.606C48.4822 16.889 48.0397 15.96 48.0397 14.8187C48.0397 13.8238 48.3106 12.9825 48.8524 12.2948C49.4122 11.5925 50.1797 11.0585 51.1549 10.6927C52.1301 10.3269 53.2408 10.144 54.4868 10.144C55.9496 10.144 57.1596 10.305 58.1167 10.6269C58.8752 10.861 59.2544 11.278 59.2544 11.8778C59.2544 12.3022 59.0919 12.646 58.7668 12.9093C58.4598 13.1581 57.9632 13.2824 57.277 13.2824C56.8255 13.2824 56.3379 13.2459 55.8142 13.1727C55.2905 13.0849 54.7758 13.041 54.2701 13.041C53.4936 13.041 52.9067 13.1508 52.5094 13.3702C52.1121 13.5897 51.9134 13.9555 51.9134 14.4676C51.9134 14.9358 52.1933 15.3601 52.7532 15.7405C53.313 16.1209 54.3424 16.494 55.8413 16.8598C57.5569 17.2695 58.7398 17.8254 59.3899 18.5277C60.04 19.2154 60.3651 20.0933 60.3651 21.1614C60.3651 22.7123 59.724 23.8974 58.4418 24.7168C57.1776 25.5215 55.3808 25.9238 53.0511 25.9238Z" fill="#101840" fill-opacity="0.8"/>
<path d="M74.7525 24.4534C74.7525 25.4337 74.1205 25.9238 72.8563 25.9238C72.2423 25.9238 71.7547 25.7995 71.3935 25.5507C71.0324 25.302 70.8518 24.9362 70.8518 24.4534V15.8283C70.8518 14.4529 71.0775 13.3556 71.529 12.5363C71.9805 11.7023 72.7209 11.0951 73.7503 10.7147C74.7796 10.3342 76.1521 10.144 77.8677 10.144C80.1432 10.144 81.8588 10.5757 83.0146 11.4389C84.1884 12.2875 84.7753 13.7506 84.7753 15.8283V24.4534C84.7753 25.4337 84.1433 25.9238 82.8791 25.9238C82.2651 25.9238 81.7775 25.7995 81.4163 25.5507C81.0552 25.302 80.8746 24.9362 80.8746 24.4534V15.8283C80.8746 14.7456 80.6398 13.9774 80.1703 13.5239C79.7188 13.0557 78.9513 12.8216 77.8677 12.8216C77.019 12.8216 76.3688 12.924 75.9173 13.1288C75.4659 13.3337 75.1589 13.6555 74.9963 14.0945C74.8338 14.5334 74.7525 15.1113 74.7525 15.8283V24.4534Z" fill="#101840" fill-opacity="0.8"/>
<path d="M91.9657 18.1327C91.9657 19.8738 92.2275 21.1248 92.7513 21.8856C93.275 22.6318 94.0515 23.0049 95.0809 23.0049C95.731 23.0049 96.2999 22.9683 96.7875 22.8952C97.2751 22.8074 97.7175 22.7635 98.1148 22.7635C98.8372 22.7635 99.3609 22.8879 99.6859 23.1366C100.011 23.3707 100.174 23.6779 100.174 24.0584C100.174 24.5558 99.9478 24.9362 99.4963 25.1996C99.0629 25.463 98.5031 25.6458 97.8168 25.7483C97.1486 25.8507 96.4624 25.9019 95.7581 25.9019C93.8077 25.9019 92.2546 25.6093 91.0988 25.024C89.9611 24.4388 89.1394 23.5755 88.6338 22.4343C88.1462 21.2784 87.9024 19.8446 87.9024 18.1327C87.9024 16.4208 88.1462 14.9724 88.6338 13.7872C89.1394 12.5875 89.9611 11.6803 91.0988 11.0658C92.2546 10.4513 93.8077 10.144 95.7581 10.144C96.4624 10.144 97.1486 10.1953 97.8168 10.2977C98.5031 10.4001 99.0629 10.583 99.4963 10.8463C99.9478 11.1097 100.174 11.4901 100.174 11.9876C100.174 12.3534 100.011 12.6606 99.6859 12.9093C99.3609 13.1581 98.8372 13.2824 98.1148 13.2824C97.7175 13.2824 97.2751 13.2459 96.7875 13.1727C96.2999 13.0849 95.731 13.041 95.0809 13.041C93.8167 13.041 92.977 13.458 92.5616 14.292C92.1643 15.1113 91.9657 16.3916 91.9657 18.1327Z" fill="#101840" fill-opacity="0.8"/>
<path d="M109.291 25.9238C107.72 25.9238 106.383 25.6751 105.282 25.1776C104.18 24.6655 103.341 23.8316 102.763 22.6757C102.203 21.5198 101.923 19.9543 101.923 17.9791C101.923 16.0039 102.203 14.4456 102.763 13.3044C103.341 12.1632 104.18 11.3511 105.282 10.8683C106.383 10.3855 107.72 10.144 109.291 10.144C110.88 10.144 112.217 10.3855 113.3 10.8683C114.402 11.3511 115.232 12.1632 115.792 13.3044C116.37 14.4456 116.659 16.0039 116.659 17.9791C116.659 19.9543 116.37 21.5198 115.792 22.6757C115.232 23.8316 114.402 24.6655 113.3 25.1776C112.217 25.6751 110.88 25.9238 109.291 25.9238ZM109.291 23.0268C110.013 23.0268 110.627 22.8879 111.133 22.6099C111.657 22.3319 112.054 21.8271 112.325 21.0955C112.614 20.364 112.758 19.3251 112.758 17.9791C112.758 16.6184 112.614 15.5869 112.325 14.8846C112.054 14.1676 111.657 13.6848 111.133 13.4361C110.627 13.1727 110.013 13.041 109.291 13.041C108.587 13.041 107.973 13.1727 107.449 13.4361C106.925 13.6848 106.519 14.1676 106.23 14.8846C105.959 15.5869 105.824 16.6184 105.824 17.9791C105.824 19.3251 105.959 20.364 106.23 21.0955C106.519 21.8271 106.925 22.3319 107.449 22.6099C107.973 22.8879 108.587 23.0268 109.291 23.0268Z" fill="#101840" fill-opacity="0.8"/>
</g>
<path d="M145.442 25.9238C143.871 25.9238 142.535 25.6751 141.433 25.1776C140.332 24.6655 139.492 23.8316 138.914 22.6757C138.354 21.5198 138.074 19.9543 138.074 17.9791C138.074 16.0039 138.354 14.4456 138.914 13.3044C139.492 12.1632 140.332 11.3511 141.433 10.8683C142.535 10.3855 143.871 10.144 145.442 10.144C147.032 10.144 148.368 10.3855 149.451 10.8683C150.553 11.3511 151.384 12.1632 151.944 13.3044C152.522 14.4456 152.81 16.0039 152.81 17.9791C152.81 19.9543 152.522 21.5198 151.944 22.6757C151.384 23.8316 150.553 24.6655 149.451 25.1776C148.368 25.6751 147.032 25.9238 145.442 25.9238ZM145.442 23.0268C146.165 23.0268 146.779 22.8879 147.284 22.6099C147.808 22.3319 148.205 21.8271 148.476 21.0955C148.765 20.364 148.91 19.3251 148.91 17.9791C148.91 16.6184 148.765 15.5869 148.476 14.8846C148.205 14.1676 147.808 13.6848 147.284 13.4361C146.779 13.1727 146.165 13.041 145.442 13.041C144.738 13.041 144.124 13.1727 143.6 13.4361C143.077 13.6848 142.67 14.1676 142.381 14.8846C142.11 15.5869 141.975 16.6184 141.975 17.9791C141.975 19.3251 142.11 20.364 142.381 21.0955C142.67 21.8271 143.077 22.3319 143.6 22.6099C144.124 22.8879 144.738 23.0268 145.442 23.0268Z" fill="#101840" fill-opacity="0.8"/>
<g id="Group">
<path d="M34.5035 10.8044L1.48274 25.1615C1.18349 24.4753 0.926995 23.7665 0.717746 23.0398L20.9946 14.2244C21.8406 13.8554 22.3469 13.0296 22.3469 12.1611C22.3469 11.8619 22.2861 11.5581 22.1601 11.2656C21.6651 10.1249 20.3399 9.60291 19.1991 10.0979L0.00674968 18.4431C0.00224971 18.2968 0 18.1483 0 17.9998C0 8.05943 8.05945 0 17.9999 0C19.9236 0 21.7776 0.301498 23.5146 0.861742L12.6449 5.58895C11.7989 5.95795 11.2927 6.78369 11.2927 7.65443C11.2927 7.95368 11.3534 8.25742 11.4794 8.54992C11.9744 9.68841 13.2997 10.2104 14.4404 9.71541L28.6918 3.51672C31.2141 5.3842 33.2323 7.89293 34.5035 10.8044Z" fill="#2F43D0"/>
<path d="M22.5975 27.2723C22.5975 27.5716 22.6582 27.8753 22.7842 28.1678C23.2792 29.3063 24.6045 29.8306 25.7452 29.3333L34.3154 25.6074C31.4512 31.7453 25.2209 36 17.9985 36C12.2295 36 7.09281 33.2843 3.79883 29.0633L35.7756 15.1584C35.9219 16.0832 35.9984 17.0327 35.9984 18.0002C35.9984 18.6819 35.9601 19.3547 35.8859 20.0162L23.9497 25.2069C23.1037 25.5759 22.5975 26.4038 22.5975 27.2723Z" fill="#2F43D0"/>
</g>
<path d="M67.1367 24.4526C67.1367 24.9501 66.9838 25.324 66.6768 25.5728C66.3878 25.8067 65.9091 25.9233 65.2412 25.9233C63.9048 25.9233 63.2363 25.4329 63.2363 24.4526V17.3394L67.1367 15.646V24.4526ZM65.1602 10.144C66.478 10.1442 67.1366 10.6338 67.1367 11.6138V12.562L63.2363 14.2554V11.6138C63.2364 11.1018 63.3903 10.7287 63.6973 10.4946C64.0043 10.2607 64.4922 10.144 65.1602 10.144Z" fill="#101840" fill-opacity="0.8"/>
<path d="M135.212 24.4526C135.212 24.9501 135.058 25.324 134.751 25.5728C134.462 25.8067 133.983 25.9233 133.315 25.9233C131.979 25.9233 131.311 25.4329 131.311 24.4526V17.7104L135.212 16.0161V24.4526ZM133.234 10.144C134.552 10.1441 135.212 10.6337 135.212 11.6138V12.9312L131.311 14.6255V11.6138C131.311 11.1018 131.465 10.7287 131.771 10.4946C132.078 10.2606 132.566 10.144 133.234 10.144Z" fill="#101840" fill-opacity="0.8"/>
<circle cx="123.984" cy="18.5977" r="1.69069" fill="#101840" fill-opacity="0.8"/>
</g>
</svg>
